#!OML:ASF E:\Mandelcareful walks\Project 1\Capture day 1\Session 1\Subject1.ASF
:FULLY-SPECIFIED
:DEGREES
508
root 3.11438 14.0229 3.6749 199.038 -1.38488 -193.21
lowerback 45.3683 -1.69038 1.59067
upperback 10.0234 -5.372 4.0728
thorax -9.39819 -4.23543 6.23053
lowerneck -38.0302 -7.96887 -11.119
upperneck 19.1852 -6.1336 4.7659
head 12.9786 -2.78827 2.34537
rclavicle -1.145e-013 7.196e-014
rhumerus 31.9235 19.0855 -62.148
rradius 51.591
rwrist -17.0808
rhand -13.8737 -30.3775
rfingers 7.12502
rthumb 12.2509 -59.9987
lclavicle -1.145e-013 7.196e-014
lhumerus 26.8977 -28.0956 46.8135
lradius 50.2791
lwrist 31.5442
lhand -41.932 -18.2084
lfingers 7.12502
lthumb -14.8297 11.2409
rfemur -66.3279 -17.0841 10.4787
rtibia 84.4358
rfoot -29.089 1.13647
rtoes 4.62723
lfemur -63.5776 33.0565 -33.0893
ltibia 93.8294
lfoot -9.11178 3.13288
ltoes -20.1404
509
root 3.0607 14.1243 3.62751 198.793 -1.18372 -193.418
lowerback 45.0175 -1.90694 2.06346
upperback 10.0202 -5.42363 4.07404
thorax -9.32014 -4.25852 5.99048
lowerneck -37.8482 -8.21217 -10.935
upperneck 18.8548 -6.53119 4.64184
head 12.835 -2.95987 2.18093
rclavicle -1.06549e-013 3.85642e-014
rhumerus 30.4136 19.0863 -61.4817
rradius 52.8188
rwrist -18.0887
rhand -14.5323 -31.2884
rfingers 7.12502
rthumb 11.6158 -60.9464
lclavicle -1.06549e-013 3.85642e-014
lhumerus 26.3167 -29.049 47.5975
lradius 50.7353
lwrist 31.9805
lhand -39.4272 -15.1704
lfingers 7.12502
lthumb -12.4156 14.4409
rfemur -64.9251 -16.7207 9.66939
rtibia 83.1537
rfoot -29.1352 0.486716
rtoes 1.5625
lfemur -63.2588 32.0812 -32.5986
ltibia 93.8638
lfoot -6.94357 3.57328
ltoes -20.8759
510
root 3.03281 14.1896 3.59778 198.902 -0.656601 -193.657
lowerback 44.4012 -1.92087 2.07472
upperback 9.95096 -5.38014 3.85119
thorax -9.25381 -4.19949 5.68853
lowerneck -37.5219 -8.32996 -10.5647
upperneck 18.4679 -6.94791 4.71877
head 12.6492 -3.10261 2.06797
rclavicle 6.99722e-014 -1.19271e-015
rhumerus 28.9269 18.7953 -63.0267
rradius 52.8138
rwrist -17.2628
rhand -15.078 -31.4165
rfingers 7.12502
rthumb 11.0895 -61.1035
lclavicle 6.99722e-014 -1.19271e-015
lhumerus 25.6122 -30.3604 47.6837
lradius 51.5782
lwrist 32.4926
lhand -37.1468 -12.4722
lfingers 7.12502
lthumb -10.2163 17.2597
rfemur -64.359 -15.9316 9.03663
rtibia 82.1084
rfoot -28.8841 -0.0482365
rtoes 0.880599
lfemur -63.7376 31.648 -32.4023
ltibia 93.8752
lfoot -4.90426 3.92687
ltoes -22.3765
511
root 2.98554 14.2622 3.5606 198.77 -0.149786 -193.976
lowerback 44.2029 -2.03911 2.1142
upperback 9.74717 -5.43824 3.6807
thorax -9.44293 -4.18558 5.5132
lowerneck -37.0732 -8.50684 -10.6457
upperneck 18.0371 -7.27966 5.01244
head 12.449 -3.21339 2.1307
rclavicle -6.52014e-014 1.07344e-013
rhumerus 27.2093 19.0041 -63.1186
rradius 53.5518
rwrist -17.4969
rhand -15.4824 -31.5103
rfingers 7.12502
rthumb 10.6995 -61.2179
lclavicle -6.52014e-014 1.07344e-013
lhumerus 24.5052 -31.6838 48.1551
lradius 52.3964
lwrist 32.5129
lhand -34.8826 -11.2405
lfingers 7.12502
lthumb -8.03145 18.5869
rfemur -63.489 -15.4141 8.22427
rtibia 81.0731
rfoot -28.7533 -0.180554
rtoes 0.804437
lfemur -63.6974 31.3513 -32.2329
ltibia 93.5535
lfoot -3.81029 4.86852
ltoes -24.5205
512
root 2.91169 14.3516 3.50411 198.556 0.320237 -194.307
lowerback 44.0044 -2.27431 2.21928
upperback 9.49609 -5.60389 3.66509
thorax -9.6689 -4.22646 5.523
lowerneck -36.492 -8.82981 -11.3516
upperneck 17.4866 -7.57901 5.60143
head 12.2218 -3.31297 2.413
rclavicle 6.20208e-014 -1.11319e-014
rhumerus 25.8072 19.8749 -62.0175
rradius 54.5723
rwrist -18.5278
rhand -15.5991 -31.9519
rfingers 7.12502
rthumb 10.5869 -61.6653
lclavicle 6.20208e-014 -1.11319e-014
lhumerus 22.9679 -32.8714 49.2003
lradius 53.294
lwrist 32.245
lhand -32.236 -10.7229
lfingers 7.12502
lthumb -5.47659 19.1863
rfemur -62.3948 -15.2356 7.28618
rtibia 80.006
rfoot -28.788 0.0386584
rtoes 0.302666
lfemur -63.1234 30.7134 -31.941
ltibia 92.8058
lfoot -3.80039 6.08708
ltoes -23.4595
513
root 2.84916 14.4169 3.45743 198.658 0.900434 -194.659
lowerback 43.4611 -2.39738 1.75099
upperback 9.24225 -5.86085 3.86975
thorax -9.75165 -4.30624 6.07972
lowerneck -35.8986 -8.86501 -11.4526
upperneck 16.4926 -7.53945 5.44935
head 11.7293 -3.31306 2.38726
rclavicle 3.65764e-014 7.95139e-015
rhumerus 24.732 21.1864 -61.4692
rradius 55.2961
rwrist -18.9372
rhand -15.0192 -32.3231
rfingers 7.12502
rthumb 11.1463 -62.007
lclavicle 3.65764e-014 7.95139e-015
lhumerus 20.8224 -33.6322 50.4603
lradius 54.6311
lwrist 31.9463
lhand -29.6297 -10.0205
lfingers 7.12502
lthumb -2.95983 19.9387
rfemur -61.9702 -15.0952 6.54586
rtibia 79.1222
rfoot -28.6868 0.0768435
rtoes -0.128396
lfemur -63.0113 30.1446 -31.7835
ltibia 91.6802
lfoot -4.31907 6.78608
ltoes -22.3345
514
root 2.78008 14.4624 3.40991 198.636 1.40444 -194.714
lowerback 42.9966 -2.46925 1.80039
upperback 9.14634 -5.88452 3.80151
thorax -9.7338 -4.29335 5.96621
lowerneck -35.3801 -9.02731 -11.3337
upperneck 15.6153 -7.90665 5.70006
head 11.3488 -3.42775 2.39941
rclavicle 8.11041e-014 -5.64548e-014
rhumerus 23.2896 21.3507 -61.97
rradius 55.6931
rwrist -18.7288
rhand -14.4847 -32.3436
rfingers 7.12502
rthumb 11.6617 -61.999
lclavicle 8.11041e-014 -5.64548e-014
lhumerus 19.6426 -34.8902 51.1375
lradius 55.7212
lwrist 31.1032
lhand -27.39 -9.30245
lfingers 7.12502
lthumb -0.796719 20.6758
rfemur -61.4425 -15.0029 6.19161
rtibia 78.3074
rfoot -28.6036 -0.011661
rtoes -0.40081
lfemur -62.8602 29.8187 -31.418
ltibia 90.2341
lfoot -4.91274 7.10548
ltoes -26.2767
515
root 2.70466 14.5223 3.36421 198.665 1.89974 -194.62
lowerback 42.5358 -2.67017 2.04644
upperback 9.0782 -6.00763 3.64686
thorax -9.69267 -4.33007 5.69794
lowerneck -35.3539 -9.4041 -12.0181
upperneck 15.3069 -8.35328 6.73909
head 11.3534 -3.52328 2.80902
rclavicle -9.54166e-015 -4.21423e-014
rhumerus 22.0512 21.7163 -61.9037
rradius 56.333
rwrist -19.1315
rhand -15.4668 -32.7707
rfingers 7.12502
rthumb 10.7145 -62.4775
lclavicle -9.54166e-015 -4.21423e-014
lhumerus 18.277 -35.8579 51.7091
lradius 56.8398
lwrist 29.6818
lhand -25.2677 -9.11119
lfingers 7.12502
lthumb 1.25299 20.8649
rfemur -60.9063 -14.8544 5.94807
rtibia 77.422
rfoot -28.4369 0.191934
rtoes -0.255277
lfemur -62.3933 28.9161 -30.2218
ltibia 88.0711
lfoot -5.45054 6.86696
ltoes -25.9964
516
root 2.61776 14.5675 3.32222 198.899 2.47634 -194.697
lowerback 42.2674 -6.49912 -1.35562
upperback 9.18033 -4.71143 3.04597
thorax -9.43851 -0.829944 5.74506
lowerneck -35.1881 -9.75812 -12.8402
upperneck 15.0325 -8.6585 7.54934
head 11.3374 -3.59945 3.18236
rclavicle -1.11319e-013 6.59965e-014
rhumerus 20.8659 22.5068 -61.0765
rradius 57.1693
rwrist -20.1051
rhand -16.4361 -33.3142
rfingers 7.12502
rthumb 9.77944 -63.0672
lclavicle -1.11319e-013 6.59965e-014
lhumerus 16.1856 -36.558 53.0418
lradius 58.2343
lwrist 27.8398
lhand -23.4822 -9.31722
lfingers 7.12502
lthumb 2.97739 20.6417
rfemur -60.8441 -14.8838 5.50527
rtibia 76.661
rfoot -28.1237 0.632788
rtoes -0.215329
lfemur -62.188 27.7718 -29.4692
ltibia 85.4525
lfoot -5.50816 6.33731
ltoes -26.7399
517
root 2.53467 14.6264 3.27002 198.75 3.1144 -194.792
lowerback 42.0762 -6.45649 -1.44385
upperback 9.01954 -4.79258 3.04543
thorax -9.54911 -0.894564 5.82855
lowerneck -34.6876 -10.094 -13.3207
upperneck 14.3405 -9.06055 8.13081
head 11.0982 -3.7307 3.39868
rclavicle 9.54166e-015 2.78299e-014
rhumerus 19.5465 22.6874 -61.0195
rradius 57.6156
rwrist -20.1431
rhand -15.7988 -33.0452
rfingers 7.12502
rthumb 10.3942 -62.7683
lclavicle 9.54166e-015 2.78299e-014
lhumerus 14.2329 -37.3365 54.3729
lradius 59.7513
lwrist 26.0887
lhand -22.502 -9.07487
lfingers 7.12502
lthumb 3.92398 20.8687
rfemur -60.1794 -14.8341 5.0049
rtibia 75.726
rfoot -27.9888 0.834207
rtoes -0.503276
lfemur -61.1844 26.7896 -28.4316
ltibia 82.1434
lfoot -5.5501 5.08042
ltoes -27.4145
